<svg width="94" height="32" viewBox="0 0 94 32" fill="none" xmlns="http://www.w3.org/2000/svg">
<g clip-path="url(#clip0_7123_14407)">
<path d="M17.4742 6.29089C17.4445 6.24408 17.3492 6.23628 17.2897 6.21288C17.26 6.25657 17.235 6.27685 17.235 6.29713C17.2303 13.0295 17.2303 19.7602 17.2178 26.4925C17.2178 26.9325 17.382 27.0745 17.8119 27.087C18.7282 27.1135 18.7876 27.0854 18.7876 26.1618C18.7891 21.5092 18.7876 16.8551 18.7876 12.2025C18.7876 11.9357 18.8157 11.669 18.836 11.2789C19.0409 11.4458 19.1393 11.4942 19.1894 11.5738C20.226 13.2229 21.3564 14.8237 22.2507 16.5477C22.8261 17.6539 23.2232 18.9161 23.3936 20.1518C23.6391 21.9242 22.8948 23.4751 21.6128 24.7045C20.7497 25.533 20.2494 26.4348 20.3855 27.6658C20.4527 28.2806 20.3933 28.9124 20.3714 29.535C20.3511 30.0982 20.0587 30.3744 19.4724 30.3666C18.4311 30.3525 17.3882 30.3697 16.347 30.3712C15.6569 30.3712 15.3114 30.0353 15.3104 29.3633C15.3072 20.8633 15.3119 12.3617 15.2854 3.86164C15.2838 3.34677 15.0243 2.8319 14.8351 2.13916C14.0737 2.94891 13.7031 3.56832 13.7062 4.46388C13.7359 12.8079 13.7187 21.1535 13.7406 29.4975C13.7422 30.1793 13.5561 30.3978 12.8619 30.3853C10.5699 30.3447 8.2778 30.3525 5.98573 30.3775C5.2118 30.3868 4.61768 30.2714 4.66302 29.2697C4.40035 29.2463 4.24713 29.2245 4.09235 29.2198C3.09171 29.1933 2.95569 29.3805 3.26213 30.3556C3.58578 31.3916 4.37065 31.8987 5.76997 31.9127C8.06204 31.9346 10.3541 31.9346 12.6462 31.9346C14.8867 31.9346 17.1271 31.9424 19.3661 31.9065C21.0953 31.8784 21.8817 31.0593 21.9052 29.3431C21.9145 28.6675 21.8473 27.9841 21.9317 27.3179C21.9865 26.892 22.1584 26.4021 22.4461 26.0994C23.4264 25.065 24.2473 23.951 24.6882 22.5826C25.398 20.3749 24.9993 18.2515 23.8611 16.3512C21.8207 12.9436 19.6147 9.63599 17.4727 6.29089H17.4742Z" fill="white"/>
<path d="M37.1988 17.3809C37.1003 16.1593 37.0064 14.9813 36.9079 13.8049C36.8704 13.3478 37.0893 13.1449 37.5318 13.0997C38.412 13.0076 39.2907 12.8984 40.1678 12.7845C40.5915 12.7299 40.8214 12.8641 40.7916 13.3244C40.7057 14.6583 40.6228 15.9908 40.5337 17.3903H44.1172C43.6012 13.7019 43.6122 10.0542 44.1125 6.35645H40.5243C40.615 7.6483 40.6978 8.90271 40.7963 10.1571C40.8323 10.6205 40.6478 10.8062 40.1835 10.8436C39.3532 10.9107 38.523 10.9965 37.7038 11.1385C37.0487 11.2524 36.8563 10.9996 36.9001 10.3927C36.9986 9.0603 37.0752 7.72631 37.1612 6.38609H33.6293C34.1281 10.1025 34.1562 13.7472 33.6074 17.384H37.1988V17.3809Z" fill="white"/>
<path d="M6.31551 27.0869C6.54378 27.051 6.78768 27.0557 7.01751 27.0869C7.71952 27.1852 7.8915 26.8778 7.88838 26.2054C7.86336 21.1877 7.95092 16.1685 7.83522 11.1524C7.793 9.32853 8.24016 7.86037 9.35493 6.43277C10.823 4.55115 12.116 2.53535 13.5029 0.552322C12.6257 -0.244948 12.1207 -0.179419 11.4563 0.766071C9.84117 3.06271 8.22453 5.35778 6.65009 7.68094C6.40775 8.03979 6.27486 8.54218 6.27017 8.97904C6.2389 12.1244 6.25297 15.2714 6.25297 18.4168C6.25297 20.5231 6.26079 22.6294 6.24202 24.7341C6.24046 24.9868 6.07942 25.458 6.01063 25.4549C5.32738 25.4237 4.45965 25.5501 4.00311 25.185C2.23793 23.7761 1.27639 21.921 1.67351 19.5776C1.98934 17.7178 2.843 16.0546 3.93901 14.5771C4.83176 13.3742 4.69261 12.1385 4.67072 10.6282C2.84769 13.279 1.08408 15.7223 0.264811 18.6773C-0.182346 20.289 -0.0744657 21.8992 0.674445 23.3923C1.82674 25.6858 3.30892 27.5643 6.31551 27.0853V27.0869Z" fill="white"/>
<path d="M54.3895 15.8503C54.4693 16.348 54.5209 16.8488 54.5928 17.398H58.4671C57.9949 16.4494 57.504 15.571 57.11 14.6521C56.014 12.1011 54.9665 9.52987 53.8751 6.97736C53.7688 6.72617 53.5109 6.36888 53.3076 6.35796C52.1772 6.29711 51.0405 6.32831 49.993 6.32831C49.8226 8.45645 48.7188 10.1711 47.9917 12.0044C47.2647 13.8407 46.3907 15.6194 45.6074 17.3668H49.5646C49.5224 17.1687 49.4864 17.0454 49.4692 16.919C49.3301 15.8846 49.6256 15.5258 50.6637 15.4134C51.4908 15.3245 52.3195 15.2418 53.1372 15.0983C53.8079 14.9813 54.2707 15.1186 54.3895 15.8503ZM50.62 13.4554C51.089 12.2977 51.483 11.3241 51.8786 10.349C51.9521 10.349 52.0255 10.3459 52.0975 10.3443C52.4633 11.2102 52.8292 12.0761 53.2685 13.1152C52.3914 13.2276 51.6253 13.3259 50.62 13.4554Z" fill="white"/>
<path d="M73.6782 16.8535C73.6845 15.6319 73.9331 15.4384 74.8899 15.3979C75.7436 15.362 76.5941 15.2122 77.4415 15.0827C78.0388 14.9906 78.4734 15.1155 78.5891 15.777C78.6798 16.2981 78.7486 16.8239 78.8346 17.3965H82.6792C82.1304 16.2435 81.5738 15.1654 81.0954 14.0529C80.0791 11.6923 79.1098 9.31301 78.0997 6.94929C77.9997 6.7137 77.7652 6.37201 77.5807 6.36265C76.4518 6.30804 75.3183 6.33457 74.2676 6.33457C74.0097 8.45958 72.9684 10.1711 72.2429 11.9841C71.5081 13.822 70.6388 15.6054 69.8477 17.3715H73.7579C73.7235 17.1547 73.6766 17.0033 73.6782 16.8535ZM76.1157 10.3584C76.1892 10.3584 76.2642 10.3584 76.3377 10.3568C76.7004 11.2227 77.0632 12.0886 77.4962 13.1215C76.6176 13.2323 75.8483 13.3306 74.8211 13.4601C75.3183 12.2696 75.717 11.3148 76.1157 10.3584Z" fill="white"/>
<path d="M68.3347 17.487C68.5004 16.5508 68.6756 15.5679 68.8772 14.4274C67.1809 15.3167 65.4985 15.0218 63.8506 15.0952C63.2565 15.1217 63.0845 14.9017 63.1111 14.3275C63.2346 11.6783 62.8078 9.00253 63.5207 6.39697H59.8137C60.2562 10.1103 60.3172 13.7487 59.7559 17.487H68.3347Z" fill="white"/>
<path d="M92.0953 17.5553C92.2392 17.5553 92.4878 17.4289 92.5097 17.3228C92.7035 16.4085 92.8552 15.4849 93.0084 14.6315C92.0688 14.7937 91.2386 14.9841 90.3958 15.0683C89.6735 15.1401 88.9355 15.0496 88.2101 15.1058C87.5378 15.1572 87.2798 14.9575 87.3111 14.2492C87.4283 11.6249 87.0578 8.97724 87.7238 6.37012H84.0324C84.4937 10.0803 84.5281 13.7296 83.998 17.5662C86.6357 17.5662 89.3655 17.5693 92.0953 17.5553Z" fill="white"/>
<path d="M11.3932 25.7703C11.3932 19.9553 11.3932 14.1404 11.3932 8.32549V6.99463C10.4379 8.31301 9.63117 9.34899 9.69059 10.9623C9.82661 14.7208 9.73436 18.4887 9.73593 22.2535C9.73593 23.8106 9.73593 25.3662 9.73593 26.9576C11.3276 27.293 11.3948 27.24 11.3948 25.7703H11.3932Z" fill="white"/>
<path d="M34.3023 20.3857H33.1484V25.1522H34.3023V20.3857Z" fill="white"/>
<path d="M40.8952 23.1317H40.8561L38.9752 20.3857H37.9824V25.1506H39.1363V22.4H39.1675L41.0672 25.1506H42.0475V20.3857H40.8952V23.1317Z" fill="white"/>
<path d="M49.5618 24.046C49.7525 23.6887 49.8479 23.2628 49.8479 22.7666C49.8479 22.2705 49.7525 21.8461 49.5618 21.4904C49.3711 21.1346 49.099 20.8616 48.7472 20.6713C48.3954 20.4809 47.9764 20.3857 47.4886 20.3857H45.7266V25.1522H47.4917C47.9764 25.1522 48.3954 25.057 48.7488 24.8667C49.1021 24.6763 49.3726 24.4033 49.5634 24.046H49.5618ZM48.5471 23.5889C48.4517 23.7948 48.311 23.943 48.125 24.0335C47.9389 24.124 47.7122 24.1693 47.4448 24.1693H46.8789V21.3671H47.4292C47.7028 21.3671 47.9326 21.4124 48.1203 21.5029C48.3079 21.5933 48.4502 21.7416 48.5455 21.9444C48.6409 22.1472 48.6894 22.4218 48.6894 22.7651C48.6894 23.1083 48.6409 23.3829 48.5455 23.5873L48.5471 23.5889Z" fill="white"/>
<path d="M56.8584 20.6043C56.5145 20.4155 56.1283 20.3203 55.6999 20.3203C55.2715 20.3203 54.8837 20.4155 54.5413 20.6043C54.1989 20.7931 53.9253 21.0708 53.7236 21.4343C53.5219 21.7994 53.4219 22.2441 53.4219 22.7683C53.4219 23.2925 53.5219 23.7341 53.7236 24.0976C53.9253 24.4611 54.1974 24.7388 54.5413 24.9292C54.8853 25.1195 55.2715 25.2147 55.6999 25.2147C56.1283 25.2147 56.5129 25.1195 56.8584 24.9307C57.2024 24.742 57.476 24.4642 57.6777 24.1007C57.8794 23.7356 57.981 23.291 57.981 22.7667C57.981 22.2425 57.8794 21.7978 57.6777 21.4327C57.476 21.0677 57.2024 20.7915 56.8584 20.6027V20.6043ZM56.6708 23.5546C56.5832 23.7684 56.4566 23.9306 56.2924 24.0414C56.1283 24.1522 55.9313 24.2068 55.7014 24.2068C55.4716 24.2068 55.2762 24.1522 55.112 24.0414C54.9478 23.9306 54.8212 23.7684 54.7336 23.5546C54.6461 23.3409 54.6023 23.0788 54.6023 22.7683C54.6023 22.4578 54.6461 22.1957 54.7336 21.9819C54.8212 21.7682 54.9478 21.6059 55.112 21.4952C55.2762 21.3844 55.4732 21.3298 55.7014 21.3298C55.9297 21.3298 56.1283 21.3844 56.2924 21.4952C56.4566 21.6059 56.5817 21.7682 56.6708 21.9819C56.7584 22.1957 56.8021 22.4578 56.8021 22.7683C56.8021 23.0788 56.7584 23.3409 56.6708 23.5546Z" fill="white"/>
<path d="M64.4811 23.1317L62.6002 20.3857H61.6074V25.1506H62.7613V22.4H62.7925L64.6922 25.1506H65.6725V20.3857H64.5202V23.1317H64.4811Z" fill="white"/>
<path d="M72.6798 24.2161H70.5035V23.2363H72.5094V22.2986H70.5035V21.3203H72.6798V20.3857H69.3496V25.1506H72.6798V24.2161Z" fill="white"/>
<path d="M78.5956 24.1973C78.4862 24.2394 78.3533 24.2597 78.1985 24.2597C78.0297 24.2597 77.8796 24.2331 77.7514 24.1801C77.6232 24.127 77.5231 24.0506 77.4496 23.9476C77.3761 23.8446 77.3355 23.7167 77.3261 23.5638H76.2207C76.2254 23.9367 76.3098 24.2441 76.4756 24.4875C76.6397 24.7308 76.8711 24.9118 77.1682 25.032C77.4652 25.1521 77.8139 25.2114 78.2126 25.2114C78.6113 25.2114 78.9505 25.1537 79.2335 25.0398C79.515 24.9243 79.7323 24.7605 79.8824 24.5436C80.0325 24.3283 80.1091 24.0693 80.1107 23.7682C80.1107 23.5778 80.0763 23.4047 80.0122 23.2518C79.9481 23.0989 79.8542 22.9631 79.7307 22.8445C79.6072 22.7275 79.4556 22.6246 79.2742 22.5403C79.0928 22.4561 78.8849 22.3874 78.6488 22.3359L78.2392 22.2423C78.1297 22.2189 78.0328 22.1924 77.9452 22.1612C77.8577 22.13 77.7842 22.0941 77.7232 22.0535C77.6622 22.013 77.6153 21.9646 77.5841 21.91C77.5528 21.8554 77.5372 21.793 77.5403 21.7212C77.5403 21.6338 77.5669 21.5574 77.6169 21.4903C77.6669 21.4232 77.742 21.3701 77.8405 21.3311C77.9405 21.2921 78.0641 21.2734 78.2141 21.2734C78.4393 21.2734 78.6128 21.3218 78.7348 21.417C78.8567 21.5121 78.9255 21.6447 78.9412 21.8164H80.0466C80.0434 21.5199 79.9668 21.2594 79.8152 21.0347C79.6651 20.81 79.4524 20.6353 79.1804 20.5105C78.9068 20.3857 78.5863 20.3232 78.2157 20.3232C77.8452 20.3232 77.5309 20.3857 77.2479 20.5089C76.9649 20.6337 76.7429 20.8053 76.5834 21.0285C76.424 21.25 76.3442 21.509 76.3458 21.8039C76.3442 22.1659 76.463 22.4514 76.7007 22.6636C76.9383 22.8758 77.2635 23.0287 77.6779 23.1238L78.1766 23.2408C78.3502 23.2814 78.494 23.3251 78.6066 23.3719C78.7192 23.4187 78.802 23.4749 78.8567 23.5388C78.9115 23.6028 78.9396 23.6808 78.9412 23.7698C78.9412 23.8665 78.9099 23.9507 78.8505 24.0256C78.7911 24.1005 78.7066 24.1582 78.5972 24.2004L78.5956 24.1973Z" fill="white"/>
<path d="M84.8042 20.3857H83.6504V25.1522H84.8042V20.3857Z" fill="white"/>
<path d="M89.8873 20.3857L88.2754 25.1522H89.5152L89.8295 24.1521H91.479L91.7932 25.1522H93.0331L91.4211 20.3857H89.8842H89.8873ZM90.1047 23.2753L90.6347 21.5855H90.6722L91.2038 23.2753H90.1047Z" fill="white"/>
</g>
<defs>
<clipPath id="clip0_7123_14407">
<rect width="94" height="32" fill="white"/>
</clipPath>
</defs>
</svg>
