<svg width="24" height="25" viewBox="0 0 24 25" fill="none" xmlns="http://www.w3.org/2000/svg">
<path d="M8.9101 21.4698C8.7201 21.4698 8.5301 21.3998 8.3801 21.2498C8.0901 20.9598 8.0901 20.4798 8.3801 20.1898L14.9001 13.6698C15.3801 13.1898 15.3801 12.4098 14.9001 11.9298L8.3801 5.40982C8.0901 5.11982 8.0901 4.63982 8.3801 4.34982C8.6701 4.05982 9.1501 4.05982 9.4401 4.34982L15.9601 10.8698C16.4701 11.3798 16.7601 12.0698 16.7601 12.7998C16.7601 13.5298 16.4801 14.2198 15.9601 14.7298L9.4401 21.2498C9.2901 21.3898 9.1001 21.4698 8.9101 21.4698Z" fill="black"/>
</svg>
