<svg width="24" height="25" viewBox="0 0 24 25" fill="none" xmlns="http://www.w3.org/2000/svg">
<path d="M12 23.05C6.07 23.05 1.25 18.23 1.25 12.3C1.25 6.37005 6.07 1.55005 12 1.55005C12.41 1.55005 12.75 1.89005 12.75 2.30005C12.75 2.71005 12.41 3.05005 12 3.05005C6.9 3.05005 2.75 7.20005 2.75 12.3C2.75 17.4 6.9 21.55 12 21.55C17.1 21.55 21.25 17.4 21.25 12.3C21.25 11.89 21.59 11.55 22 11.55C22.41 11.55 22.75 11.89 22.75 12.3C22.75 18.23 17.93 23.05 12 23.05Z" fill="#292D32"/>
<path d="M12.9999 12.05C12.8099 12.05 12.6199 11.98 12.4699 11.83C12.1799 11.54 12.1799 11.06 12.4699 10.77L20.6699 2.57005C20.9599 2.28005 21.4399 2.28005 21.7299 2.57005C22.0199 2.86005 22.0199 3.34005 21.7299 3.63005L13.5299 11.83C13.3799 11.98 13.1899 12.05 12.9999 12.05Z" fill="#292D32"/>
<path d="M22 7.88005C21.59 7.88005 21.25 7.54005 21.25 7.13005V3.05005H17.17C16.76 3.05005 16.42 2.71005 16.42 2.30005C16.42 1.89005 16.76 1.55005 17.17 1.55005H22C22.41 1.55005 22.75 1.89005 22.75 2.30005V7.13005C22.75 7.54005 22.41 7.88005 22 7.88005Z" fill="#292D32"/>
</svg>
