<svg width="28" height="28" viewBox="0 0 28 28" fill="none" xmlns="http://www.w3.org/2000/svg">
<path d="M18.6084 0C21.9304 0 23.5912 0.000476011 24.8555 0.657227C25.9209 1.21066 26.7893 2.07913 27.3428 3.14453C27.9995 4.40883 28 6.06962 28 9.3916V18.6084C28 21.9304 27.9995 23.5912 27.3428 24.8555C26.7893 25.9209 25.9209 26.7893 24.8555 27.3428C23.5912 27.9995 21.9304 28 18.6084 28H16.333V17.8887H19.4443L20.0664 14H16.333V11.2773C16.3331 10.1887 16.7227 9.33301 18.4336 9.33301H20.2227V5.75586C19.2116 5.60032 18.1224 5.44436 17.1113 5.44434C13.9225 5.44434 11.6671 7.3888 11.667 10.8887V14H8.16699V17.8887H11.667V28H9.3916C6.06962 28 4.40883 27.9995 3.14453 27.3428C2.07913 26.7893 1.21066 25.9209 0.657227 24.8555C0.000476011 23.5912 0 21.9304 0 18.6084V9.3916C0 6.06962 0.000475948 4.40883 0.657227 3.14453C1.21066 2.07913 2.07913 1.21066 3.14453 0.657227C4.40883 0.000475948 6.06962 0 9.3916 0H18.6084Z" fill="white"/>
</svg>
