<svg width="40" height="41" viewBox="0 0 40 41" fill="none" xmlns="http://www.w3.org/2000/svg">
<path d="M19.95 38.2166C10.0833 38.2166 2.03333 30.1833 2.03333 20.3C2.03333 10.4166 10.0833 2.3833 19.95 2.3833C29.8167 2.3833 37.8667 10.4166 37.8667 20.3C37.8667 30.1833 29.8333 38.2166 19.95 38.2166ZM19.95 4.8833C11.45 4.8833 4.53333 11.8 4.53333 20.3C4.53333 28.8 11.45 35.7166 19.95 35.7166C28.45 35.7166 35.3667 28.8 35.3667 20.3C35.3667 11.8 28.45 4.8833 19.95 4.8833Z" fill="black"/>
<path d="M20 32.383C16.4166 32.383 13.05 30.633 11 27.683C10.6 27.1163 10.75 26.333 11.3166 25.9497C11.8833 25.5497 12.6666 25.6997 13.05 26.2663C14.6333 28.533 17.2333 29.8997 20 29.8997C22.7666 29.8997 25.3666 28.5497 26.95 26.2663C27.35 25.6997 28.1166 25.5663 28.6833 25.9497C29.25 26.3497 29.3833 27.1163 29 27.683C26.95 30.633 23.5833 32.383 20 32.383Z" fill="black"/>
</svg>
