<svg width="28" height="28" viewBox="0 0 28 28" fill="none" xmlns="http://www.w3.org/2000/svg">
<g clip-path="url(#clip0_5475_400)">
<path d="M18.624 0C21.9461 0 23.6078 0.000471664 24.8721 0.657227C25.9372 1.21068 26.806 2.0793 27.3594 3.14453C28.016 4.4088 28.0156 6.06984 28.0156 9.3916V18.6084C28.0156 21.9302 28.016 23.5912 27.3594 24.8555C26.806 25.9207 25.9372 26.7893 24.8721 27.3428C23.6078 27.9995 21.9461 28 18.624 28H9.40723C6.08544 28 4.42442 27.9995 3.16016 27.3428C2.09486 26.7893 1.22625 25.9208 0.672852 24.8555C0.0161525 23.5912 0.015625 21.9303 0.015625 18.6084V9.3916C0.015625 6.0697 0.0161526 4.40882 0.672852 3.14453C1.22625 2.0792 2.09486 1.21067 3.16016 0.657227C4.42442 0.000495724 6.08544 8.81389e-10 9.40723 0H18.624ZM13.998 3.81836C11.235 3.81837 10.8875 3.83047 9.80176 3.87988C8.71813 3.92954 7.97833 4.1008 7.33105 4.35254C6.66148 4.61257 6.09321 4.96032 5.52734 5.52637C4.96107 6.09224 4.61343 6.66073 4.35254 7.33008C4.10012 7.97768 3.92769 8.71824 3.87891 9.80176C3.83034 10.8876 3.81836 11.235 3.81836 14C3.81836 16.7652 3.83067 17.1112 3.87988 18.1973C3.92973 19.2812 4.10097 20.0216 4.35254 20.6689C4.61272 21.3383 4.96061 21.906 5.52637 22.4717C6.09208 23.038 6.66086 23.3874 7.33008 23.6475C7.9778 23.8992 8.71824 24.0705 9.80176 24.1201C10.8875 24.1695 11.2345 24.1816 13.999 24.1816C16.7643 24.1816 17.1104 24.1695 18.1963 24.1201C19.2802 24.0705 20.0211 23.8992 20.6689 23.6475C21.3384 23.3874 21.905 23.038 22.4707 22.4717C23.037 21.9058 23.3856 21.3383 23.6465 20.6689C23.8968 20.0213 24.0682 19.2808 24.1191 18.1973C24.1679 17.1114 24.1807 16.7651 24.1807 14C24.1807 11.2348 24.1679 10.8878 24.1191 9.80176C24.0682 8.71782 23.8968 7.97747 23.6465 7.33008C23.3856 6.66054 23.037 6.09222 22.4707 5.52637C21.9045 4.96028 21.3381 4.61232 20.668 4.35254C20.019 4.10084 19.2789 3.92954 18.1953 3.87988C17.1094 3.83046 16.7632 3.81836 13.998 3.81836ZM13.0869 5.65332C13.3579 5.6529 13.6603 5.65332 14 5.65332C16.7182 5.65332 17.041 5.66314 18.1143 5.71191C19.107 5.75731 19.646 5.92314 20.0049 6.0625C20.48 6.24704 20.8187 6.46787 21.1748 6.82422C21.5311 7.18052 21.7516 7.52004 21.9365 7.99512C22.0759 8.3536 22.2419 8.89231 22.2871 9.88477C22.3359 10.958 22.3467 11.2809 22.3467 13.998C22.3467 16.7147 22.3359 17.0373 22.2871 18.1104C22.2417 19.1031 22.0759 19.6425 21.9365 20.001C21.752 20.4759 21.531 20.8139 21.1748 21.1699C20.8185 21.5263 20.4802 21.7471 20.0049 21.9316C19.6464 22.0716 19.107 22.2368 18.1143 22.2822C17.0412 22.331 16.7182 22.3418 14 22.3418C11.2817 22.3418 10.959 22.331 9.88574 22.2822C8.89373 22.2364 8.35515 22.0709 7.99609 21.9316C7.52101 21.7471 7.1815 21.5262 6.8252 21.1699C6.46885 20.8136 6.24746 20.4754 6.0625 20C5.92314 19.6415 5.75709 19.1021 5.71191 18.1094C5.66315 17.0364 5.65332 16.7137 5.65332 13.9951C5.65332 11.2762 5.66313 10.9552 5.71191 9.88184C5.75732 8.88927 5.92315 8.35009 6.0625 7.99121C6.24702 7.51621 6.46892 7.1766 6.8252 6.82031C7.18138 6.46422 7.52116 6.24348 7.99609 6.05859C8.35494 5.91866 8.8938 5.75362 9.88574 5.70801C10.825 5.66558 11.1894 5.65251 13.0869 5.65039V5.65332ZM14 8.77148C11.1127 8.77168 8.77149 11.1125 8.77148 14C8.77148 16.8875 11.1126 19.2273 14 19.2275C16.8875 19.2275 19.2285 16.8876 19.2285 14C19.2285 11.1124 16.8875 8.77148 14 8.77148ZM14 10.6064C15.8742 10.6064 17.3945 12.1255 17.3945 14C17.3945 15.8743 15.8742 17.3936 14 17.3936C12.1257 17.3934 10.6064 15.8742 10.6064 14C10.6065 12.1256 12.1257 10.6066 14 10.6064ZM19.4355 7.34277C18.761 7.34277 18.2139 7.89067 18.2139 8.56543C18.2141 9.2398 18.7612 9.78711 19.4355 9.78711C20.1098 9.78691 20.657 9.23967 20.6572 8.56543C20.6572 7.89101 20.1099 7.34298 19.4355 7.34277Z" fill="white"/>
</g>
<defs>
<clipPath id="clip0_5475_400">
<rect width="28" height="28" fill="white"/>
</clipPath>
</defs>
</svg>
