<svg width="56" height="57" viewBox="0 0 56 57" fill="none" xmlns="http://www.w3.org/2000/svg">
<path d="M50.3066 25.36L47.1332 21.6734C46.5266 20.9734 46.0366 19.6667 46.0366 18.7334V14.7667C46.0366 12.2934 44.0066 10.2634 41.5332 10.2634H37.5666C36.6566 10.2634 35.3266 9.77338 34.6266 9.16671L30.9399 5.99338C29.3299 4.61671 26.6932 4.61671 25.0599 5.99338L21.3966 9.19004C20.6966 9.77338 19.3666 10.2634 18.4566 10.2634H14.4199C11.9466 10.2634 9.91656 12.2934 9.91656 14.7667V18.7567C9.91656 19.6667 9.42656 20.9734 8.84322 21.6734L5.69322 25.3834C4.33989 26.9934 4.33989 29.6067 5.69322 31.2167L8.84322 34.9267C9.42656 35.6267 9.91656 36.9334 9.91656 37.8434V41.8334C9.91656 44.3067 11.9466 46.3367 14.4199 46.3367H18.4566C19.3666 46.3367 20.6966 46.8267 21.3966 47.4334L25.0832 50.6067C26.6932 51.9834 29.3299 51.9834 30.9632 50.6067L34.6499 47.4334C35.3499 46.8267 36.6566 46.3367 37.5899 46.3367H41.5566C44.0299 46.3367 46.0599 44.3067 46.0599 41.8334V37.8667C46.0599 36.9567 46.5499 35.6267 47.1566 34.9267L50.3299 31.24C51.6832 29.63 51.6832 26.97 50.3066 25.36ZM38.9199 28.3L36.1899 36.6067C35.8399 37.9834 34.3699 39.1034 32.8766 39.1034H28.5599C27.8132 39.1034 26.7632 38.8467 26.2966 38.38L22.8666 35.6967C22.7966 37.19 22.1199 37.82 20.4632 37.82H19.3432C17.6166 37.82 16.9166 37.1434 16.9166 35.51V24.3567C16.9166 22.7234 17.6166 22.0467 19.3432 22.0467H20.4866C22.2132 22.0467 22.9132 22.7234 22.9132 24.3567V25.1967L27.4399 18.4767C27.9066 17.7534 29.0966 17.24 30.0999 17.6367C31.1966 18.01 31.8966 19.2234 31.6632 20.2967L31.1032 23.9367C31.0566 24.2634 31.1266 24.5667 31.3366 24.8C31.5232 25.01 31.8032 25.15 32.1066 25.15H36.6566C37.5432 25.15 38.2899 25.5 38.7332 26.13C39.1299 26.7367 39.1999 27.5067 38.9199 28.3Z" fill="#F8B20C"/>
</svg>
