<svg width="40" height="41" viewBox="0 0 40 41" fill="none" xmlns="http://www.w3.org/2000/svg">
<path d="M19.9999 28.2166C19.3333 28.2166 18.6666 28.1666 18.0333 28.05C14.4999 27.5333 11.2833 25.5 9.24992 22.4833C7.83325 20.35 7.08325 17.8666 7.08325 15.3C7.08325 8.1833 12.8833 2.3833 19.9999 2.3833C27.1166 2.3833 32.9166 8.1833 32.9166 15.3C32.9166 17.8666 32.1666 20.35 30.7499 22.4833C28.6999 25.5166 25.4833 27.5333 21.9166 28.0666C21.3333 28.1666 20.6666 28.2166 19.9999 28.2166ZM19.9999 4.8833C14.2499 4.8833 9.58325 9.54997 9.58325 15.3C9.58325 17.3833 10.1833 19.3833 11.3166 21.0833C12.9666 23.5166 15.5499 25.15 18.4166 25.5666C19.4833 25.75 20.5333 25.75 21.5166 25.5666C24.4333 25.15 27.0166 23.5 28.6666 21.0666C29.7999 19.3666 30.3999 17.3666 30.3999 15.2833C30.4166 9.54995 25.7499 4.8833 19.9999 4.8833Z" fill="black"/>
<path d="M10.7829 37.9496C10.5496 37.9496 10.3329 37.9163 10.0996 37.8663C9.01628 37.6163 8.18295 36.7829 7.93295 35.6996L7.34961 33.2496C7.31628 33.0996 7.19961 32.9829 7.03295 32.9329L4.28295 32.2829C3.24961 32.0329 2.43295 31.2663 2.14961 30.2496C1.86628 29.2329 2.14961 28.1329 2.89961 27.3829L9.39962 20.8829C9.66628 20.6163 10.0329 20.4829 10.3996 20.5163C10.7663 20.5496 11.0996 20.7496 11.3163 21.0662C12.9663 23.4996 15.5496 25.1496 18.4329 25.5663C19.4996 25.7496 20.5496 25.7496 21.5329 25.5663C24.4496 25.1496 27.0329 23.4996 28.6829 21.0662C28.8829 20.7496 29.2329 20.5496 29.5996 20.5163C29.9663 20.4829 30.3329 20.6163 30.5996 20.8829L37.0996 27.3829C37.8496 28.1329 38.1329 29.2329 37.8496 30.2496C37.5663 31.2663 36.7329 32.0496 35.7163 32.2829L32.9663 32.9329C32.8163 32.9662 32.6996 33.0829 32.6496 33.2496L32.0663 35.6996C31.8163 36.7829 30.9829 37.6163 29.8996 37.8663C28.8163 38.1329 27.6996 37.7496 26.9996 36.8996L19.9996 28.8496L12.9996 36.9163C12.4329 37.5829 11.6329 37.9496 10.7829 37.9496ZM10.1496 23.6829L4.66628 29.1663C4.51628 29.3163 4.53295 29.4829 4.56628 29.5829C4.58295 29.6663 4.66628 29.8329 4.86628 29.8662L7.61628 30.5163C8.69962 30.7663 9.53295 31.5996 9.78295 32.6829L10.3663 35.1329C10.4163 35.3496 10.5829 35.4163 10.6829 35.4496C10.7829 35.4663 10.9496 35.4829 11.0996 35.3163L17.4829 27.9663C14.6496 27.4163 12.0496 25.8996 10.1496 23.6829ZM22.5163 27.9496L28.8996 35.2829C29.0496 35.4662 29.2329 35.4662 29.3329 35.4329C29.4329 35.4162 29.5829 35.3329 29.6496 35.1163L30.2329 32.6663C30.4829 31.5829 31.3163 30.7496 32.3996 30.4996L35.1496 29.8496C35.3496 29.7996 35.4329 29.6496 35.4496 29.5663C35.4829 29.4829 35.4996 29.2996 35.3496 29.1496L29.8663 23.6662C27.9496 25.8829 25.3663 27.3996 22.5163 27.9496Z" fill="black"/>
<path d="M23.1503 21.7831C22.717 21.7831 22.2003 21.6664 21.5837 21.2997L20.0003 20.3497L18.417 21.2831C16.967 22.1497 16.017 21.6497 15.667 21.3997C15.317 21.1497 14.567 20.3997 14.9503 18.7497L15.3503 17.0331L14.017 15.7997C13.2837 15.0664 13.017 14.1831 13.267 13.3831C13.517 12.5831 14.2503 12.0164 15.2837 11.8497L17.067 11.5497L17.917 9.68306C18.4003 8.73306 19.1503 8.19971 20.0003 8.19971C20.8503 8.19971 21.617 8.74975 22.0837 9.69975L23.067 11.6664L24.717 11.8664C25.7337 12.0331 26.467 12.5997 26.7337 13.3997C26.9837 14.1997 26.717 15.0831 25.9837 15.8164L24.6003 17.1997L25.0337 18.7497C25.417 20.3997 24.667 21.1497 24.317 21.3997C24.1337 21.5497 23.7337 21.7831 23.1503 21.7831ZM16.017 14.2831L17.167 15.433C17.7003 15.9664 17.967 16.8664 17.8003 17.5997L17.4836 18.933L18.817 18.1497C19.5336 17.733 20.5003 17.733 21.2003 18.1497L22.5337 18.933L22.2337 17.5997C22.067 16.8497 22.317 15.9664 22.8503 15.433L24.0003 14.2831L22.5503 14.033C21.8503 13.9164 21.1503 13.3997 20.8337 12.7664L20.0003 11.1331L19.167 12.7997C18.867 13.4164 18.167 13.9497 17.467 14.0664L16.017 14.2831Z" fill="black"/>
</svg>
