<svg width="40" height="41" viewBox="0 0 40 41" fill="none" xmlns="http://www.w3.org/2000/svg">
<path d="M17.9834 25.5829C17.6501 25.5829 17.3334 25.4496 17.1001 25.2163L13.0667 21.1829C12.5834 20.6996 12.5834 19.8996 13.0667 19.4163C13.5501 18.9329 14.3501 18.9329 14.8334 19.4163L17.9834 22.5663L25.1501 15.3996C25.6334 14.9163 26.4334 14.9163 26.9167 15.3996C27.4001 15.8829 27.4001 16.6829 26.9167 17.1663L18.8667 25.2163C18.6334 25.4496 18.3167 25.5829 17.9834 25.5829Z" fill="black"/>
<path d="M20 38.2166C18.95 38.2166 17.9 37.8666 17.0833 37.1666L14.45 34.9C14.1833 34.6666 13.5167 34.4333 13.1667 34.4333H10.3C7.83334 34.4333 5.83334 32.4333 5.83334 29.9666V27.1166C5.83334 26.7666 5.60001 26.1166 5.36667 25.85L3.11667 23.2C1.75001 21.5833 1.75001 19.0333 3.11667 17.4166L5.36667 14.7666C5.60001 14.5 5.83334 13.85 5.83334 13.5V10.6333C5.83334 8.16663 7.83334 6.16663 10.3 6.16663H13.1833C13.5333 6.16663 14.2 5.91663 14.4667 5.69997L17.1 3.4333C18.7333 2.0333 21.2833 2.0333 22.9167 3.4333L25.55 5.69997C25.8167 5.9333 26.4833 6.16663 26.8333 6.16663H29.6667C32.1333 6.16663 34.1333 8.16663 34.1333 10.6333V13.4666C34.1333 13.8166 34.3833 14.4833 34.6167 14.75L36.8833 17.3833C38.2833 19.0166 38.2833 21.5666 36.8833 23.2L34.6167 25.8333C34.3833 26.1 34.1333 26.7666 34.1333 27.1166V29.95C34.1333 32.4166 32.1333 34.4166 29.6667 34.4166H26.8333C26.4833 34.4166 25.8167 34.6666 25.55 34.8833L22.9167 37.15C22.1 37.8666 21.05 38.2166 20 38.2166ZM10.3 8.66663C9.21667 8.66663 8.33334 9.54997 8.33334 10.6333V13.4833C8.33334 14.4333 7.88334 15.65 7.26667 16.3666L5.01667 19.0166C4.43334 19.7 4.43334 20.8833 5.01667 21.5666L7.26667 24.2166C7.88334 24.95 8.33334 26.15 8.33334 27.1V29.95C8.33334 31.0333 9.21667 31.9166 10.3 31.9166H13.1833C14.15 31.9166 15.3667 32.3666 16.1 33L18.7333 35.2666C19.4167 35.85 20.6167 35.85 21.3 35.2666L23.9333 33C24.6667 32.3833 25.8833 31.9166 26.85 31.9166H29.6833C30.7667 31.9166 31.65 31.0333 31.65 29.95V27.1166C31.65 26.15 32.1 24.9333 32.7333 24.2L35 21.5666C35.5833 20.8833 35.5833 19.6833 35 19L32.7333 16.3666C32.1 15.6333 31.65 14.4166 31.65 13.45V10.6333C31.65 9.54997 30.7667 8.66663 29.6833 8.66663H26.85C25.8833 8.66663 24.6667 8.21663 23.9333 7.5833L21.3 5.31663C20.6167 4.7333 19.4167 4.7333 18.7333 5.31663L16.1 7.59997C15.3667 8.21663 14.1333 8.66663 13.1833 8.66663H10.3Z" fill="black"/>
</svg>
