<svg width="28" height="28" viewBox="0 0 28 28" fill="none" xmlns="http://www.w3.org/2000/svg">
<path d="M18.6084 0C21.9304 0 23.5912 0.000476011 24.8555 0.657227C25.9209 1.21066 26.7893 2.07913 27.3428 3.14453C27.9995 4.40883 28 6.06962 28 9.3916V18.6084C28 21.9304 27.9995 23.5912 27.3428 24.8555C26.7893 25.9209 25.9209 26.7893 24.8555 27.3428C23.5912 27.9995 21.9304 28 18.6084 28H9.3916C6.06962 28 4.40883 27.9995 3.14453 27.3428C2.07913 26.7893 1.21066 25.9209 0.657227 24.8555C0.000476011 23.5912 0 21.9304 0 18.6084V9.3916C0 6.06962 0.000475948 4.40883 0.657227 3.14453C1.21066 2.07913 2.07913 1.21066 3.14453 0.657227C4.40883 0.000475948 6.06962 0 9.3916 0H18.6084ZM14.3154 3.83301C8.82265 3.83301 4.35203 8.30129 4.34961 13.793C4.34889 15.5486 4.80759 17.2629 5.67969 18.7734L4.26562 23.9346L9.54883 22.5498C11.0044 23.3433 12.6436 23.7611 14.3115 23.7617H14.3154C19.8077 23.7617 24.279 19.2928 24.2812 13.8008C24.2821 11.1397 23.2464 8.6374 21.3652 6.75488C19.6014 4.98989 17.2917 3.9676 14.8135 3.8457L14.3154 3.83301ZM14.3184 5.51562C16.5307 5.51634 18.6109 6.37846 20.1748 7.94336C21.7386 9.5082 22.5995 11.5887 22.5986 13.8008C22.5968 18.3657 18.8808 22.08 14.3154 22.0801H14.3115C12.8254 22.0794 11.3673 21.68 10.0957 20.9258L9.79395 20.7461L6.65918 21.5684L7.49512 18.5127L7.29883 18.2002C6.46969 16.8821 6.03161 15.3583 6.03223 13.7939C6.03405 9.22943 9.74961 5.51579 14.3184 5.51562ZM10.7871 9.19336C10.6211 9.19336 10.3513 9.2557 10.123 9.50488C9.89481 9.75399 9.25202 10.3562 9.25195 11.5811C9.25195 12.8062 10.1441 13.9901 10.2686 14.1562C10.3951 14.3256 12.0263 16.8367 14.5225 17.9141C15.1163 18.1704 15.5799 18.3238 15.9414 18.4385C16.5378 18.6279 17.0807 18.6012 17.5098 18.5371C17.9881 18.4657 18.9828 17.9347 19.1904 17.3535C19.3979 16.7721 19.3982 16.2738 19.3359 16.1699C19.2737 16.066 19.1074 16.0035 18.8584 15.8789C18.6086 15.7539 17.3854 15.1524 17.1572 15.0693C16.929 14.9864 16.7626 14.9453 16.5967 15.1943C16.4305 15.4437 15.9538 16.0039 15.8086 16.1699C15.6635 16.3359 15.5182 16.3568 15.2695 16.2324C15.0205 16.1079 14.2177 15.8449 13.2666 14.9971C12.5263 14.3371 12.0271 13.5216 11.8818 13.2725C11.7367 13.0234 11.8656 12.8887 11.9902 12.7646C12.1022 12.6531 12.2398 12.4744 12.3643 12.3291C12.4888 12.1838 12.5302 12.0791 12.6133 11.9131C12.6959 11.7472 12.6549 11.602 12.5928 11.4775C12.5305 11.3529 12.0317 10.1283 11.8242 9.62988C11.6222 9.14496 11.4175 9.20971 11.2646 9.20215C11.1196 9.19496 10.9531 9.19336 10.7871 9.19336Z" fill="white"/>
</svg>
